<svg width="287" height="194" viewBox="0 0 287 194" fill="none" xmlns="http://www.w3.org/2000/svg">
<path d="M12.4617 90.0576C9.91236 93.6194 9.84186 98.3895 12.2848 102.025C53.0169 162.642 115.008 181.61 142.106 183.475C142.77 183.521 143.437 183.503 144.098 183.423C176.849 179.428 205.308 164.888 227.394 148.712C249.451 132.558 265.719 114.36 274.147 102.126C276.72 98.3906 276.604 93.4254 273.859 89.8146C263.981 76.8196 245.944 57.6153 223.36 41.3943C200.893 25.2569 172.822 11.2808 143.092 10.5297C113.042 9.77051 84.8835 23.6256 62.5275 40.0199C40.0466 56.5057 22.195 76.4587 12.4617 90.0576Z" stroke="white" stroke-width="21" stroke-linecap="round" stroke-linejoin="round"/>
<path fill-rule="evenodd" clip-rule="evenodd" d="M69.2842 95.4695C69.2842 60.4895 101.072 31.8535 140.647 31.8535C180.223 31.8535 212.01 60.4895 212.01 95.4695C212.01 98.4111 211.785 101.308 211.35 104.146L214.331 104.524C214.779 101.564 215.01 98.5422 215.01 95.4695C215.01 58.5244 181.554 28.8535 140.647 28.8535C99.7407 28.8535 66.2842 58.5244 66.2842 95.4695C66.2842 132.415 99.7407 162.086 140.647 162.086C166.809 162.086 189.924 149.949 203.188 131.535L200.376 130.285C187.657 147.597 165.714 159.086 140.647 159.086C101.072 159.086 69.2842 130.45 69.2842 95.4695ZM213.369 109.47L210.367 109.09C210.046 110.401 209.679 111.698 209.268 112.978L212.164 113.803C212.618 112.378 213.02 110.933 213.369 109.47ZM204.574 123.761C205.662 121.811 206.641 119.804 207.505 117.748L210.421 118.579C209.516 120.773 208.485 122.912 207.337 124.99L204.574 123.761Z" fill="white"/>
<path d="M211.35 104.146L205.419 103.237C205.174 104.837 205.586 106.468 206.56 107.76C207.535 109.052 208.991 109.896 210.597 110.099L211.35 104.146ZM214.331 104.524L213.578 110.476C216.809 110.885 219.776 108.642 220.263 105.421L214.331 104.524ZM203.188 131.535L208.057 135.042C209.113 133.576 209.452 131.713 208.98 129.969C208.509 128.225 207.277 126.786 205.626 126.052L203.188 131.535ZM200.376 130.285L202.814 124.802C200.237 123.657 197.21 124.46 195.541 126.732L200.376 130.285ZM213.369 109.47L219.205 110.861C219.6 109.203 219.272 107.456 218.302 106.055C217.332 104.654 215.813 103.731 214.122 103.517L213.369 109.47ZM210.367 109.09L211.12 103.137C208.096 102.755 205.265 104.701 204.539 107.661L210.367 109.09ZM209.268 112.978L203.555 111.145C203.058 112.693 203.211 114.376 203.978 115.809C204.745 117.242 206.06 118.303 207.624 118.748L209.268 112.978ZM212.164 113.803L210.52 119.573C213.637 120.462 216.897 118.713 217.881 115.624L212.164 113.803ZM207.505 117.748L209.149 111.977C206.229 111.145 203.148 112.626 201.972 115.425L207.505 117.748ZM204.574 123.761L199.334 120.838C198.513 122.31 198.348 124.059 198.881 125.659C199.415 127.258 200.596 128.559 202.136 129.244L204.574 123.761ZM210.421 118.579L215.967 120.867C216.62 119.286 216.566 117.503 215.821 115.964C215.076 114.425 213.71 113.277 212.065 112.808L210.421 118.579ZM207.337 124.99L204.899 130.473C207.744 131.737 211.083 130.616 212.588 127.892L207.337 124.99ZM140.647 25.8535C98.4054 25.8535 63.2842 56.5633 63.2842 95.4695H75.2842C75.2842 64.4157 103.738 37.8535 140.647 37.8535V25.8535ZM218.01 95.4695C218.01 56.5633 182.889 25.8535 140.647 25.8535V37.8535C177.557 37.8535 206.01 64.4157 206.01 95.4695H218.01ZM217.281 105.056C217.762 101.918 218.01 98.7174 218.01 95.4695H206.01C206.01 98.1048 205.809 100.697 205.419 103.237L217.281 105.056ZM210.597 110.099L213.578 110.476L215.084 98.5711L212.103 98.1938L210.597 110.099ZM209.01 95.4695C209.01 98.2403 208.802 100.962 208.398 103.626L220.263 105.421C220.756 102.166 221.01 98.844 221.01 95.4695H209.01ZM140.647 34.8535C178.896 34.8535 209.01 62.4584 209.01 95.4695H221.01C221.01 54.5905 184.211 22.8535 140.647 22.8535V34.8535ZM72.2842 95.4695C72.2842 62.4584 102.398 34.8535 140.647 34.8535V22.8535C97.0832 22.8535 60.2842 54.5905 60.2842 95.4695H72.2842ZM140.647 156.086C102.398 156.086 72.2842 128.481 72.2842 95.4695H60.2842C60.2842 136.349 97.0832 168.086 140.647 168.086V156.086ZM198.32 128.028C186.24 144.798 164.98 156.086 140.647 156.086V168.086C168.639 168.086 193.608 155.1 208.057 135.042L198.32 128.028ZM197.939 135.767L200.751 137.018L205.626 126.052L202.814 124.802L197.939 135.767ZM140.647 165.086C167.53 165.086 191.307 152.762 205.211 133.837L195.541 126.732C184.006 142.432 163.898 153.086 140.647 153.086V165.086ZM63.2842 95.4695C63.2842 134.376 98.4054 165.086 140.647 165.086V153.086C103.738 153.086 75.2842 126.523 75.2842 95.4695H63.2842ZM214.122 103.517L211.12 103.137L209.614 115.042L212.616 115.422L214.122 103.517ZM214.981 114.811C215.434 113.398 215.839 111.967 216.194 110.518L204.539 107.661C204.252 108.836 203.923 109.997 203.555 111.145L214.981 114.811ZM213.808 108.033L210.912 107.208L207.624 118.748L210.52 119.573L213.808 108.033ZM207.532 108.079C207.218 109.396 206.856 110.698 206.447 111.982L217.881 115.624C218.38 114.058 218.822 112.47 219.205 110.861L207.532 108.079ZM201.972 115.425C201.197 117.273 200.316 119.079 199.334 120.838L209.813 126.685C211.009 124.543 212.086 122.335 213.037 120.07L201.972 115.425ZM212.065 112.808L209.149 111.977L205.861 123.518L208.777 124.349L212.065 112.808ZM212.588 127.892C213.845 125.619 214.974 123.275 215.967 120.867L204.875 116.29C204.057 118.272 203.125 120.206 202.085 122.088L212.588 127.892ZM202.136 129.244L204.899 130.473L209.774 119.507L207.011 118.279L202.136 129.244Z" fill="white"/>
<line x1="113.648" y1="138.059" x2="170.059" y2="54.3521" stroke="white" stroke-width="10" stroke-linecap="round" stroke-linejoin="round"/>
<line x1="95.7874" y1="119.427" x2="144.479" y2="50.2126" stroke="white" stroke-width="10" stroke-linecap="round" stroke-linejoin="round"/>
<line x1="141.472" y1="143.096" x2="187.096" y2="71.5283" stroke="white" stroke-width="10" stroke-linecap="round" stroke-linejoin="round"/>
<line x1="175.344" y1="134.626" x2="196.126" y2="100.656" stroke="white" stroke-width="10" stroke-linecap="round" stroke-linejoin="round"/>
<line x1="86.8172" y1="94.5146" x2="114.029" y2="56.1828" stroke="white" stroke-width="10" stroke-linecap="round" stroke-linejoin="round"/>
</svg>
